<?xml version="1.0" standalone="no"?>
<!DOCTYPE svg PUBLIC "-//W3C//DTD SVG 20010904//EN"
 "http://www.w3.org/TR/2001/REC-SVG-20010904/DTD/svg10.dtd">
<svg version="1.0" xmlns="http://www.w3.org/2000/svg"
 width="732.000000pt" height="732.000000pt" viewBox="0 0 732.000000 732.000000"
 preserveAspectRatio="xMidYMid meet">
<metadata>
Created by potrace 1.14, written by Peter Selinger 2001-2017
</metadata>
<g transform="translate(0.000000,732.000000) scale(0.100000,-0.100000)"
fill="#000000" stroke="none">
<path d="M3537 7124 c-1 -1 -41 -5 -88 -8 -47 -4 -96 -9 -110 -11 -13 -2 -44
-7 -69 -9 -53 -6 -176 -25 -255 -41 -11 -2 -35 -8 -52 -14 -18 -5 -33 -8 -33
-6 0 3 -11 0 -25 -5 -14 -5 -38 -12 -53 -15 -15 -3 -31 -7 -37 -9 -143 -40
-252 -76 -380 -127 -60 -24 -113 -42 -117 -41 -5 1 -8 -3 -8 -8 0 -6 -5 -10
-11 -10 -15 0 -324 -155 -339 -170 -8 -8 -43 -29 -60 -37 -21 -9 -272 -180
-296 -201 -10 -9 -37 -30 -59 -47 -76 -56 -188 -158 -310 -280 -139 -140 -223
-238 -349 -408 -20 -26 -36 -52 -36 -57 0 -6 -3 -10 -7 -10 -5 0 -26 -28 -47
-63 -22 -34 -49 -78 -62 -97 -64 -99 -214 -398 -266 -535 -19 -49 -39 -99 -43
-110 -5 -11 -9 -22 -10 -25 0 -3 -15 -50 -32 -105 -37 -117 -75 -258 -88 -330
-2 -11 -6 -31 -9 -45 -4 -14 -8 -41 -11 -60 -3 -19 -9 -57 -14 -85 -6 -27 -13
-77 -16 -110 -3 -33 -8 -85 -11 -115 -20 -180 -15 -541 11 -730 3 -25 8 -58
10 -75 2 -16 6 -43 9 -60 3 -16 8 -43 10 -60 7 -50 35 -175 57 -259 11 -43 22
-86 24 -95 5 -24 85 -261 100 -296 166 -391 297 -622 510 -895 154 -199 404
-451 574 -580 18 -14 38 -30 44 -35 7 -6 48 -36 92 -68 44 -31 85 -60 90 -65
26 -21 196 -122 205 -122 5 0 10 -3 10 -7 0 -5 10 -13 23 -19 12 -6 67 -34
122 -62 336 -170 703 -292 1009 -337 21 -3 41 -7 45 -9 3 -2 35 -7 71 -11 36
-3 79 -8 95 -10 186 -25 583 -25 775 0 19 3 53 7 75 10 22 3 58 8 80 10 22 2
55 9 74 14 19 6 38 8 42 5 5 -3 9 0 9 6 0 6 4 9 9 6 5 -4 35 0 66 9 31 8 60
14 63 13 4 -1 14 1 22 5 8 3 33 10 55 15 22 6 65 18 95 27 30 9 62 18 70 20 8
2 53 17 100 35 47 17 90 32 95 34 14 4 58 22 135 54 73 30 372 180 380 190 3
4 21 16 40 26 38 21 224 142 249 162 9 7 61 47 116 90 55 42 111 87 125 99 77
70 315 310 366 370 32 39 62 71 67 73 4 2 7 10 7 18 0 8 4 14 8 14 4 0 25 25
47 56 22 30 50 67 63 82 13 15 32 44 44 64 12 21 25 38 30 38 4 0 8 6 8 13 0
7 13 31 30 53 16 21 30 43 30 48 0 5 6 17 14 25 17 19 83 143 143 266 24 50
48 98 54 107 5 10 9 24 9 32 0 8 4 16 8 18 4 2 18 30 31 63 31 82 92 257 96
275 2 8 10 35 18 60 15 45 52 191 61 243 3 15 7 35 10 45 3 9 7 33 10 52 3 19
8 46 11 60 3 14 8 45 10 70 3 25 7 59 10 75 5 34 16 137 20 205 6 84 7 384 1
460 -8 102 -16 190 -21 220 -2 14 -9 57 -15 95 -6 39 -20 115 -31 170 -11 55
-23 111 -25 124 -3 14 -7 28 -10 33 -3 4 -7 16 -9 27 -4 23 -44 161 -52 181
-4 8 -7 17 -8 20 -4 17 -28 88 -35 105 -4 11 -14 36 -21 55 -7 19 -25 63 -41
98 -15 34 -28 65 -28 68 0 26 -226 441 -256 472 -7 6 -16 21 -19 32 -3 11 -10
20 -15 20 -5 0 -12 9 -15 20 -3 11 -12 26 -18 33 -7 7 -28 35 -47 62 -42 60
-39 56 -136 175 -92 111 -317 339 -424 430 -41 35 -76 67 -78 72 -2 4 -8 8
-14 8 -5 0 -34 20 -64 45 -58 47 -308 215 -320 215 -4 0 -15 6 -23 14 -18 17
-299 160 -381 195 -49 20 -109 44 -220 86 -42 16 -199 66 -220 70 -8 2 -15 4
-15 5 0 1 -7 3 -15 5 -8 1 -33 7 -55 13 -22 6 -51 13 -65 16 -147 31 -228 47
-263 51 -23 3 -55 7 -72 10 -29 5 -71 9 -190 21 -57 6 -463 13 -468 8z"/>
</g>
</svg>
